# Blender v2.76 (sub 0) OBJ File: 'sentinel.blend'
# www.blender.org
mtllib sentinel.mtl
o Cube.001
v -0.100000 1.596681 0.200000
v -0.192500 1.963094 0.137500
v -0.100000 1.596681 -0.144032
v -0.192500 1.963094 -0.199363
v 0.100000 1.596681 0.200000
v 0.192500 1.963094 0.137500
v 0.100000 1.596681 -0.144032
v 0.192500 1.963094 -0.199363
vn -0.969600 -0.244800 0.000000
vn 0.000000 -0.149300 -0.988800
vn 0.969600 -0.244800 0.000000
vn 0.000000 0.168100 0.985800
vn 0.000000 -1.000000 0.000000
vn 0.000000 1.000000 0.000000
g Cube.001_Cube.001_Material
usemtl Material
s off
f 2//1 4//1 3//1
f 8//2 7//2 3//2
f 6//3 5//3 7//3
f 2//4 1//4 5//4
f 3//5 7//5 5//5
f 8//6 4//6 2//6
f 1//1 2//1 3//1
f 4//2 8//2 3//2
f 8//3 6//3 7//3
f 6//4 2//4 5//4
f 1//5 3//5 5//5
f 6//6 8//6 2//6
o Cube
v -0.100000 0.000000 0.200000
v -0.350000 1.600000 0.250000
v -0.100000 0.000000 -0.200000
v -0.350000 1.600000 -0.250000
v 0.100000 0.000000 0.200000
v 0.350000 1.600000 0.250000
v 0.100000 0.000000 -0.200000
v 0.350000 1.600000 -0.250000
vn -0.988000 -0.154400 0.000000
vn 0.000000 -0.031200 -0.999500
vn 0.988000 -0.154400 0.000000
vn 0.000000 -0.031200 0.999500
vn 0.000000 -1.000000 0.000000
vn 0.000000 1.000000 0.000000
g Cube_Cube_Material
usemtl Material
s off
f 12//7 11//7 9//7
f 16//8 15//8 11//8
f 14//9 13//9 15//9
f 10//10 9//10 13//10
f 11//11 15//11 13//11
f 16//12 12//12 10//12
f 10//7 12//7 9//7
f 12//8 16//8 11//8
f 16//9 14//9 15//9
f 14//10 10//10 13//10
f 9//11 11//11 13//11
f 14//12 16//12 10//12
